<?xml version="1.0" encoding="utf-8"?>
<!-- Generator: Adobe Illustrator 22.0.1, SVG Export Plug-In . SVG Version: 6.00 Build 0)  -->
<svg version="1.1" id="Layer_1" xmlns="http://www.w3.org/2000/svg" xmlns:xlink="http://www.w3.org/1999/xlink" x="0px" y="0px"
	 viewBox="0 0 194.3 194.3" style="enable-background:new 0 0 194.3 194.3;" xml:space="preserve">
<style type="text/css">
	.st0{fill:url(#SVGID_1_);}
	.st1{fill:url(#SVGID_2_);}
	.st2{fill:url(#SVGID_3_);}
	.st3{fill:url(#SVGID_4_);}
	.st4{fill:url(#SVGID_5_);}
	.st5{fill:url(#SVGID_6_);}
	.st6{fill:#3E46D7;}
</style>
<g>
	<g>
		<g>
			<g>
				<g>
					<linearGradient id="SVGID_1_" gradientUnits="userSpaceOnUse" x1="351.2336" y1="130.8719" x2="384.75" y2="130.8719">
						<stop  offset="0" style="stop-color:#00C6AD"/>
						<stop  offset="1" style="stop-color:#3E46D7"/>
					</linearGradient>
					<path class="st0" d="M356,111.5L356,111.5l-4.7,2.7l0,35.9l33.5-19.5v-2.6L356,111.5z M355.7,142.5l0-26.1l22.5,13L355.7,142.5
						z"/>
					<linearGradient id="SVGID_2_" gradientUnits="userSpaceOnUse" x1="367.0587" y1="119.2066" x2="381.4355" y2="110.9061">
						<stop  offset="0" style="stop-color:#33BCA8"/>
						<stop  offset="1" style="stop-color:#3E46D7"/>
					</linearGradient>
					<polygon class="st1" points="380.3,109 380.3,114 370.4,119.8 366,117.3 					"/>
					<linearGradient id="SVGID_3_" gradientUnits="userSpaceOnUse" x1="381.1123" y1="113.4084" x2="365.7405" y2="116.1189">
						<stop  offset="0.1173" style="stop-color:#33BCA8"/>
						<stop  offset="1" style="stop-color:#3E46D7"/>
					</linearGradient>
					<polygon class="st2" points="380.3,114 380.3,113.6 380.3,109 366,117.3 370.3,119.9 					"/>
					<linearGradient id="SVGID_4_" gradientUnits="userSpaceOnUse" x1="355.6518" y1="115.5038" x2="355.6518" y2="115.5038">
						<stop  offset="0" style="stop-color:#00C6AD"/>
						<stop  offset="1" style="stop-color:#3E46D7"/>
					</linearGradient>
					<path class="st3" d="M355.7,115.5"/>
					<linearGradient id="SVGID_5_" gradientUnits="userSpaceOnUse" x1="373.1897" y1="119.0606" x2="386.4022" y2="121.3903">
						<stop  offset="9.693877e-02" style="stop-color:#00C6AD"/>
						<stop  offset="1" style="stop-color:#33BCA8"/>
					</linearGradient>
					<polygon class="st4" points="378.2,129.5 382.5,132 384.8,130.8 384.8,128.2 384.7,111.4 380.3,109 380.3,114 380.3,125.6 
						376.1,123.2 372,125.9 					"/>
					<linearGradient id="SVGID_6_" gradientUnits="userSpaceOnUse" x1="367.1158" y1="127.6556" x2="360.6314" y2="109.84">
						<stop  offset="7.142857e-02" style="stop-color:#00C6AD"/>
						<stop  offset="1" style="stop-color:#3E46D7;stop-opacity:0"/>
					</linearGradient>
					<polygon class="st5" points="376.1,123.2 356,111.5 351.6,114.1 355.7,116.5 372,125.9 					"/>
				</g>
			</g>
		</g>
	</g>
	<g>
		<path class="st6" d="M294.8,133.1l-4.6-10.5h3.8l2,5.2c0.1,0.3,0.2,0.7,0.3,1.1c0.1,0.4,0.2,0.9,0.2,1.4c0.1-0.4,0.2-0.8,0.3-1.3
			c0.1-0.4,0.3-0.9,0.4-1.4l1.7-5.1h3.8l-6.8,16.5h-3.6L294.8,133.1z"/>
		<path class="st6" d="M308.4,122.6v6c0,1,0.2,1.7,0.6,2.2s1,0.6,1.9,0.6c0.9,0,1.5-0.2,1.9-0.7s0.6-1.2,0.6-2.1v-6h3.3v6
			c0,2-0.5,3.5-1.4,4.4s-2.4,1.4-4.3,1.4c-2,0-3.5-0.5-4.4-1.4c-0.9-0.9-1.4-2.4-1.4-4.4v-6H308.4z"/>
		<path class="st6" d="M319.6,132l2.5-1.3c0.1,0.4,0.3,0.8,0.7,1c0.4,0.3,0.8,0.4,1.4,0.4c0.5,0,1-0.1,1.3-0.3
			c0.3-0.2,0.5-0.5,0.5-0.8c0-0.5-0.5-1-1.6-1.4c-0.3-0.1-0.6-0.2-0.8-0.3c-1.3-0.5-2.3-1-2.8-1.5c-0.5-0.5-0.8-1.1-0.8-1.9
			c0-1.1,0.4-2,1.3-2.7s2-1,3.4-1c1,0,1.9,0.2,2.6,0.6c0.7,0.4,1.3,1,1.6,1.7l-2.4,1.2c-0.1-0.4-0.4-0.7-0.7-1s-0.7-0.3-1.2-0.3
			s-0.9,0.1-1.2,0.3c-0.3,0.2-0.5,0.5-0.5,0.8c0,0.6,0.7,1.1,2.2,1.6c0.2,0.1,0.3,0.1,0.4,0.1c1.2,0.4,2.1,0.9,2.7,1.4
			c0.5,0.5,0.8,1.2,0.8,2.1c0,1.1-0.4,2-1.3,2.7s-2,1-3.5,1c-1.2,0-2.2-0.2-3-0.7S319.9,132.8,319.6,132z"/>
		<path class="st6" d="M331.5,139.2v-16.5h3.2v1.9c0.4-0.8,1-1.3,1.6-1.7c0.6-0.4,1.4-0.6,2.2-0.6c1.6,0,2.9,0.5,3.8,1.6
			c0.9,1.1,1.4,2.6,1.4,4.5c0,1.8-0.5,3.3-1.4,4.4c-0.9,1.1-2.1,1.7-3.6,1.7c-0.9,0-1.7-0.2-2.3-0.5s-1.2-0.9-1.6-1.6
			c0,0.3,0.1,0.6,0.1,0.9s0,0.7,0,1.2v4.7H331.5z M334.5,128.3c0,1,0.3,1.8,0.8,2.4s1.2,0.9,2.1,0.9c0.9,0,1.6-0.3,2.1-0.9
			s0.8-1.4,0.8-2.4c0-1-0.3-1.8-0.8-2.4s-1.2-0.9-2.1-0.9c-0.9,0-1.6,0.3-2.1,0.9C334.8,126.5,334.5,127.3,334.5,128.3z"/>
	</g>
</g>
<g>
	<g>
		<polygon class="st6" points="18,19.9 18,193.3 168.3,106.6 		"/>
		<g>
			<polygon class="st6" points="168.3,106.6 168.3,106.6 168.3,106.6 			"/>
			<polygon class="st6" points="176.3,102 176.3,102 176.3,1 88.7,51.4 			"/>
		</g>
	</g>
</g>
</svg>
