<?xml version="1.0" encoding="utf-8"?>
<!-- Generator: Adobe Illustrator 21.1.0, SVG Export Plug-In . SVG Version: 6.00 Build 0)  -->
<svg version="1.1" xmlns="http://www.w3.org/2000/svg" xmlns:xlink="http://www.w3.org/1999/xlink" x="0px" y="0px"
	 viewBox="0 0 77 127.6" style="enable-background:new 0 0 77 127.6;" xml:space="preserve">
<style type="text/css">
	.st0{fill:#F3F3F3;}
	.st1{opacity:0.1;}
	.st2{fill:#47525A;}
	.st3{fill:#00DBFF;}
	.st4{clip-path:url(#SVGID_2_);}
	.st5{opacity:0.3;}
	.st6{clip-path:url(#SVGID_4_);}
	.st7{fill:none;stroke:#47525A;stroke-miterlimit:10;}
	.st8{clip-path:url(#SVGID_6_);}
	.st9{opacity:0.1;fill:#33C3EA;}
	.st10{fill:none;stroke:#33C3EA;stroke-width:2;stroke-miterlimit:10;}
	.st11{fill:#FFFFFF;}
	.st12{fill:#475259;}
	.st13{fill:#404852;}
	.st14{clip-path:url(#SVGID_8_);}
	.st15{fill:url(#SVGID_9_);}
	.st16{fill:url(#SVGID_10_);}
	.st17{opacity:0.6;fill:url(#SVGID_11_);}
	.st18{fill:url(#SVGID_12_);}
	.st19{fill:url(#SVGID_13_);}
	.st20{fill:url(#SVGID_14_);}
	.st21{fill:#2A323A;}
	.st22{fill:#313B45;}
	.st23{fill:#33C3EA;}
	.st24{fill:#1E2630;}
	.st25{fill:#6AC083;}
	.st26{fill:#2AFFA3;}
	.st27{fill:#C1BFBD;}
	.st28{fill:url(#SVGID_15_);}
	.st29{fill:url(#SVGID_16_);}
	.st30{fill:url(#SVGID_17_);}
	.st31{fill:#33BBA7;}
	.st32{fill:url(#SVGID_18_);}
	.st33{fill:url(#SVGID_19_);}
	.st34{fill:url(#SVGID_20_);}
	.st35{fill:url(#SVGID_21_);}
	.st36{fill:url(#SVGID_22_);}
	.st37{fill:url(#SVGID_23_);}
	.st38{fill:url(#SVGID_24_);}
	.st39{fill:url(#SVGID_25_);}
	.st40{fill:url(#SVGID_26_);}
	.st41{fill:url(#SVGID_27_);}
	.st42{fill:url(#SVGID_28_);}
	.st43{fill:url(#SVGID_29_);}
	.st44{fill:url(#SVGID_30_);}
	.st45{fill:url(#SVGID_31_);}
	.st46{fill:url(#SVGID_32_);}
	.st47{fill:url(#SVGID_33_);}
	.st48{fill:#5170B5;}
	.st49{fill:#86BC40;}
	.st50{fill:#221F1F;}
	.st51{fill:#43AF49;}
	.st52{fill:#63B4E4;}
	.st53{fill:#6AC183;}
	.st54{fill:url(#SVGID_34_);}
	.st55{fill:url(#SVGID_35_);}
	.st56{fill:url(#SVGID_36_);}
	.st57{fill:url(#SVGID_37_);}
	.st58{fill:url(#SVGID_38_);}
	.st59{fill:url(#SVGID_39_);}
	.st60{fill:url(#SVGID_40_);}
	.st61{fill:url(#SVGID_41_);}
	.st62{fill:url(#SVGID_42_);}
	.st63{fill:url(#SVGID_43_);}
	.st64{fill:url(#SVGID_44_);}
	.st65{fill:url(#SVGID_45_);}
	.st66{fill:url(#SVGID_46_);}
	.st67{fill:url(#SVGID_47_);}
	.st68{fill:url(#SVGID_48_);}
	.st69{fill:url(#SVGID_49_);}
	.st70{fill:url(#SVGID_50_);}
	.st71{fill:url(#SVGID_51_);}
	.st72{fill:url(#SVGID_52_);}
	.st73{fill:url(#SVGID_53_);}
	.st74{fill:url(#SVGID_54_);}
	.st75{fill:url(#SVGID_55_);}
	.st76{fill:url(#SVGID_56_);}
	.st77{fill:url(#SVGID_57_);}
	.st78{fill:url(#SVGID_58_);}
	.st79{fill:url(#SVGID_59_);}
	.st80{fill:url(#SVGID_60_);}
	.st81{fill:url(#SVGID_61_);}
	.st82{fill:url(#SVGID_62_);}
	.st83{fill:url(#SVGID_63_);}
	.st84{opacity:0.6;fill:url(#SVGID_64_);}
	.st85{opacity:0.8;fill:url(#SVGID_65_);}
	.st86{opacity:0.65;}
	.st87{fill:#AFBFCE;}
	.st88{fill:#9EA6AF;}
	.st89{fill:url(#SVGID_66_);}
	.st90{fill:url(#SVGID_67_);}
	.st91{fill:url(#SVGID_68_);}
	.st92{fill:url(#SVGID_69_);}
	.st93{opacity:0.75;}
	.st94{fill:#70DFE4;}
	.st95{fill:url(#SVGID_70_);}
	.st96{fill:url(#SVGID_71_);}
	.st97{fill:url(#SVGID_72_);}
	.st98{fill:url(#SVGID_73_);}
	.st99{fill:url(#SVGID_74_);}
	.st100{fill:url(#SVGID_75_);}
	.st101{opacity:0.6;fill:url(#SVGID_76_);}
	.st102{fill:url(#SVGID_77_);}
	.st103{fill:url(#SVGID_78_);}
	.st104{opacity:0.6;fill:url(#SVGID_79_);}
	.st105{fill:url(#SVGID_80_);}
	.st106{fill:url(#SVGID_81_);}
	.st107{opacity:0.6;fill:url(#SVGID_82_);}
	.st108{fill:url(#SVGID_83_);}
	.st109{opacity:0.2;}
	.st110{clip-path:url(#SVGID_85_);}
	.st111{fill:url(#SVGID_86_);}
	.st112{fill:url(#SVGID_87_);}
	.st113{fill:url(#SVGID_88_);}
	.st114{fill:url(#SVGID_89_);}
	.st115{opacity:0.6;}
	.st116{clip-path:url(#SVGID_91_);}
	.st117{fill:url(#SVGID_92_);}
	.st118{fill:url(#SVGID_93_);}
	.st119{fill:url(#SVGID_94_);}
	.st120{fill:url(#SVGID_95_);}
	.st121{fill-rule:evenodd;clip-rule:evenodd;fill:none;stroke:#A7A9AC;stroke-miterlimit:10;}
	.st122{fill:url(#SVGID_96_);}
	.st123{fill:url(#SVGID_97_);}
	.st124{fill:url(#SVGID_98_);}
	.st125{fill:url(#SVGID_99_);}
	.st126{opacity:0.85;fill:url(#SVGID_100_);}
	.st127{clip-path:url(#SVGID_102_);}
	.st128{fill:url(#SVGID_103_);}
	.st129{fill:url(#SVGID_104_);}
	.st130{fill:url(#SVGID_105_);}
	.st131{fill:url(#SVGID_106_);}
	.st132{clip-path:url(#SVGID_108_);}
	.st133{fill:url(#SVGID_109_);}
	.st134{fill:url(#SVGID_110_);}
	.st135{fill:url(#SVGID_111_);}
	.st136{fill:url(#SVGID_112_);}
	.st137{fill:url(#SVGID_113_);}
	.st138{fill:url(#SVGID_114_);}
	.st139{fill:url(#SVGID_115_);}
	.st140{fill:url(#SVGID_116_);}
	.st141{opacity:0.85;fill:url(#SVGID_117_);}
	.st142{clip-path:url(#SVGID_119_);}
	.st143{fill:url(#SVGID_120_);}
	.st144{fill:url(#SVGID_121_);}
	.st145{fill:url(#SVGID_122_);}
	.st146{fill:url(#SVGID_123_);}
	.st147{clip-path:url(#SVGID_125_);}
	.st148{fill:url(#SVGID_126_);}
	.st149{fill:url(#SVGID_127_);}
	.st150{fill:url(#SVGID_128_);}
	.st151{fill:url(#SVGID_129_);}
	.st152{fill:url(#SVGID_130_);}
	.st153{fill:url(#SVGID_131_);}
	.st154{fill:url(#SVGID_132_);}
	.st155{fill:url(#SVGID_133_);}
	.st156{opacity:0.85;fill:url(#SVGID_134_);}
	.st157{clip-path:url(#SVGID_136_);}
	.st158{fill:url(#SVGID_137_);}
	.st159{fill:url(#SVGID_138_);}
	.st160{fill:url(#SVGID_139_);}
	.st161{fill:url(#SVGID_140_);}
	.st162{clip-path:url(#SVGID_142_);}
	.st163{fill:url(#SVGID_143_);}
	.st164{fill:url(#SVGID_144_);}
	.st165{fill:url(#SVGID_145_);}
	.st166{fill:url(#SVGID_146_);}
	.st167{fill:url(#SVGID_147_);}
	.st168{fill:url(#SVGID_148_);}
	.st169{fill:url(#SVGID_149_);}
	.st170{fill:url(#SVGID_150_);}
	.st171{fill:url(#SVGID_151_);}
	.st172{fill:url(#SVGID_152_);}
	.st173{fill:url(#SVGID_153_);}
	.st174{fill:url(#SVGID_154_);}
	.st175{fill:url(#SVGID_155_);}
	.st176{fill:url(#SVGID_156_);}
	.st177{fill:url(#SVGID_157_);}
	.st178{fill:url(#SVGID_158_);}
	.st179{opacity:0.85;fill:url(#SVGID_159_);}
	.st180{clip-path:url(#SVGID_161_);}
	.st181{fill:url(#SVGID_162_);}
	.st182{fill:url(#SVGID_163_);}
	.st183{fill:url(#SVGID_164_);}
	.st184{fill:url(#SVGID_165_);}
	.st185{clip-path:url(#SVGID_167_);}
	.st186{fill:url(#SVGID_168_);}
	.st187{fill:url(#SVGID_169_);}
	.st188{fill:url(#SVGID_170_);}
	.st189{fill:url(#SVGID_171_);}
	.st190{clip-path:url(#SVGID_173_);}
	.st191{fill:url(#SVGID_174_);}
	.st192{fill:url(#SVGID_175_);}
	.st193{fill:url(#SVGID_176_);}
	.st194{fill:url(#SVGID_177_);}
	.st195{clip-path:url(#SVGID_179_);}
	.st196{fill:url(#SVGID_180_);}
	.st197{fill:url(#SVGID_181_);}
	.st198{fill:url(#SVGID_182_);}
	.st199{fill:url(#SVGID_183_);}
	.st200{clip-path:url(#SVGID_185_);}
	.st201{fill:url(#SVGID_186_);}
	.st202{fill:url(#SVGID_187_);}
	.st203{fill:url(#SVGID_188_);}
	.st204{fill:url(#SVGID_189_);}
	.st205{clip-path:url(#SVGID_191_);}
	.st206{fill:url(#SVGID_192_);}
	.st207{fill:url(#SVGID_193_);}
	.st208{fill:url(#SVGID_194_);}
	.st209{fill:url(#SVGID_195_);}
	.st210{fill:url(#SVGID_196_);}
	.st211{fill:url(#SVGID_197_);}
	.st212{fill:url(#SVGID_198_);}
	.st213{fill:url(#SVGID_199_);}
	.st214{clip-path:url(#SVGID_201_);}
	.st215{clip-path:url(#SVGID_203_);fill-rule:evenodd;clip-rule:evenodd;}
	.st216{clip-path:url(#SVGID_201_);fill-rule:evenodd;clip-rule:evenodd;fill:#FFFFFF;}
	.st217{clip-path:url(#SVGID_201_);fill:none;stroke:#FFFFFF;stroke-width:0.2002;stroke-linejoin:round;stroke-miterlimit:10;}
	.st218{clip-path:url(#SVGID_201_);fill-rule:evenodd;clip-rule:evenodd;fill:#80C243;}
	.st219{clip-path:url(#SVGID_201_);fill-rule:evenodd;clip-rule:evenodd;fill:#93C854;}
	.st220{clip-path:url(#SVGID_321_);}
	.st221{clip-path:url(#SVGID_339_);}
	.st222{clip-path:url(#SVGID_201_);fill-rule:evenodd;clip-rule:evenodd;}
	.st223{clip-path:url(#SVGID_201_);fill:none;stroke:#000000;stroke-width:2;stroke-linejoin:round;stroke-miterlimit:10;}
	.st224{fill:url(#SVGID_342_);}
	.st225{fill:url(#SVGID_343_);}
	.st226{fill:url(#SVGID_344_);}
	.st227{fill:url(#SVGID_345_);}
	.st228{clip-path:url(#SVGID_347_);}
	.st229{opacity:0.5;fill:#FFFFFF;}
	.st230{fill:url(#SVGID_348_);}
	.st231{fill:url(#SVGID_349_);}
	.st232{fill:url(#SVGID_350_);}
	.st233{fill:#8E9AA5;}
	.st234{fill:#C9D6E2;}
	.st235{fill:url(#SVGID_351_);}
	.st236{fill:url(#SVGID_352_);}
	.st237{fill:url(#SVGID_353_);}
	.st238{fill:url(#SVGID_354_);}
	.st239{fill:url(#SVGID_355_);}
	.st240{fill:url(#SVGID_356_);}
	.st241{fill:url(#SVGID_357_);}
	.st242{fill:url(#SVGID_358_);}
	.st243{fill:url(#SVGID_359_);}
	.st244{fill:url(#SVGID_360_);}
	.st245{fill:url(#SVGID_361_);}
	.st246{fill:url(#SVGID_362_);}
	.st247{opacity:0.5;fill:url(#SVGID_363_);}
	.st248{fill:url(#SVGID_364_);}
	.st249{fill:url(#SVGID_365_);}
	.st250{fill:url(#SVGID_366_);}
	.st251{fill:url(#SVGID_367_);}
	.st252{fill:url(#SVGID_368_);}
	.st253{fill:url(#SVGID_369_);}
	.st254{fill:url(#SVGID_370_);}
	.st255{opacity:0.5;fill:url(#SVGID_371_);}
	.st256{fill:url(#SVGID_372_);}
	.st257{fill:url(#SVGID_373_);}
	.st258{fill:url(#SVGID_374_);}
	.st259{fill:url(#SVGID_375_);}
	.st260{fill:url(#SVGID_376_);}
	.st261{fill:url(#SVGID_377_);}
	.st262{fill:url(#SVGID_378_);}
	.st263{fill:url(#SVGID_379_);}
	.st264{opacity:0.5;fill:url(#SVGID_380_);}
	.st265{opacity:0.5;}
	.st266{fill:url(#SVGID_381_);}
	.st267{fill:url(#SVGID_382_);}
	.st268{fill:url(#SVGID_383_);}
	.st269{fill:url(#SVGID_384_);}
	.st270{fill:url(#SVGID_385_);}
	.st271{fill:url(#SVGID_386_);}
	.st272{fill:url(#SVGID_387_);}
	.st273{fill:url(#SVGID_388_);}
	.st274{fill:url(#SVGID_389_);}
	.st275{fill:url(#SVGID_390_);}
	.st276{fill:url(#SVGID_391_);}
	.st277{fill:url(#SVGID_392_);}
	.st278{fill:url(#SVGID_393_);}
	.st279{fill:url(#SVGID_394_);}
	.st280{fill:url(#SVGID_395_);}
	.st281{fill:url(#SVGID_396_);}
	.st282{opacity:0.5;fill:url(#SVGID_397_);}
	.st283{fill:url(#SVGID_398_);}
	.st284{fill:url(#SVGID_399_);}
	.st285{fill:url(#SVGID_400_);}
	.st286{fill:url(#SVGID_401_);}
	.st287{fill:url(#SVGID_402_);}
	.st288{fill:url(#SVGID_403_);}
	.st289{fill:url(#SVGID_404_);}
	.st290{opacity:0.5;fill:url(#SVGID_405_);}
	.st291{fill:url(#SVGID_406_);}
	.st292{fill:url(#SVGID_407_);}
	.st293{fill:url(#SVGID_408_);}
	.st294{fill:url(#SVGID_409_);}
	.st295{fill:url(#SVGID_410_);}
	.st296{fill:url(#SVGID_411_);}
	.st297{fill:url(#SVGID_412_);}
	.st298{opacity:0.5;fill:url(#SVGID_413_);}
	.st299{fill:url(#SVGID_414_);}
	.st300{fill:url(#SVGID_415_);}
	.st301{fill:url(#SVGID_416_);}
	.st302{fill:url(#SVGID_417_);}
	.st303{fill:url(#SVGID_418_);}
	.st304{fill:url(#SVGID_419_);}
	.st305{fill:url(#SVGID_420_);}
	.st306{opacity:0.5;fill:url(#SVGID_421_);}
	.st307{fill:url(#SVGID_422_);}
	.st308{clip-path:url(#SVGID_424_);}
	.st309{fill:url(#SVGID_425_);}
	.st310{fill:url(#SVGID_426_);}
	.st311{fill:url(#SVGID_427_);}
	.st312{fill:url(#SVGID_428_);}
	.st313{clip-path:url(#SVGID_430_);}
	.st314{fill:url(#SVGID_431_);}
	.st315{fill:url(#SVGID_432_);}
	.st316{fill:url(#SVGID_433_);}
	.st317{fill:url(#SVGID_434_);}
	.st318{fill:url(#SVGID_435_);}
	.st319{fill:url(#SVGID_436_);}
	.st320{fill:url(#SVGID_437_);}
	.st321{fill:url(#SVGID_438_);}
	.st322{fill:url(#SVGID_439_);}
	.st323{fill:url(#SVGID_440_);}
	.st324{fill:url(#SVGID_441_);}
	.st325{opacity:0.5;fill:url(#SVGID_442_);}
	.st326{fill:url(#SVGID_443_);}
	.st327{fill:url(#SVGID_444_);}
	.st328{fill:url(#SVGID_445_);}
	.st329{opacity:0.6;fill:url(#SVGID_446_);}
	.st330{fill:url(#SVGID_447_);}
	.st331{fill:url(#SVGID_448_);}
	.st332{opacity:0.8;fill:url(#SVGID_449_);}
	.st333{fill:url(#SVGID_450_);}
	.st334{fill:url(#SVGID_451_);}
	.st335{opacity:0.6;fill:url(#SVGID_452_);}
	.st336{opacity:0.8;fill:url(#SVGID_453_);}
	.st337{fill:url(#SVGID_454_);}
	.st338{fill:url(#SVGID_455_);}
	.st339{opacity:0.8;fill:url(#SVGID_456_);}
	.st340{fill:url(#SVGID_457_);}
	.st341{fill:url(#SVGID_458_);}
	.st342{opacity:0.6;fill:url(#SVGID_459_);}
	.st343{opacity:0.8;fill:url(#SVGID_460_);}
	.st344{fill:url(#SVGID_461_);}
	.st345{fill:url(#SVGID_462_);}
	.st346{fill:url(#SVGID_463_);}
	.st347{fill:url(#SVGID_464_);}
	.st348{fill:url(#SVGID_465_);}
	.st349{fill:url(#SVGID_466_);}
	.st350{fill:url(#SVGID_467_);}
	.st351{opacity:0.5;fill:url(#SVGID_468_);}
	.st352{clip-path:url(#SVGID_470_);}
	.st353{clip-path:url(#SVGID_472_);fill:url(#SVGID_473_);}
	.st354{clip-path:url(#SVGID_475_);}
	.st355{clip-path:url(#SVGID_477_);fill:url(#SVGID_478_);}
	.st356{clip-path:url(#SVGID_480_);}
	.st357{clip-path:url(#SVGID_482_);fill:url(#SVGID_483_);}
	.st358{clip-path:url(#SVGID_485_);}
	.st359{clip-path:url(#SVGID_487_);fill:url(#SVGID_488_);}
	.st360{clip-path:url(#SVGID_490_);}
	.st361{clip-path:url(#SVGID_492_);fill:url(#SVGID_493_);}
	.st362{fill:none;stroke:url(#SVGID_494_);stroke-miterlimit:10;}
	.st363{clip-path:url(#SVGID_496_);}
	.st364{fill:none;stroke:#475259;stroke-miterlimit:10;}
	.st365{fill:url(#SVGID_497_);}
	.st366{fill:url(#SVGID_498_);}
	.st367{fill:url(#SVGID_499_);}
	.st368{fill:url(#SVGID_500_);}
	.st369{fill:url(#SVGID_501_);}
	.st370{fill:url(#SVGID_502_);}
	.st371{fill:url(#SVGID_503_);}
	.st372{fill:url(#SVGID_504_);}
	.st373{fill:#C1C0BF;}
	.st374{fill:#4275F4;}
	.st375{fill:url(#SVGID_505_);}
	.st376{fill:#3E46D7;}
	.st377{fill:#25B0E5;}
	.st378{fill:url(#SVGID_506_);}
	.st379{fill:url(#SVGID_507_);}
	.st380{fill:url(#SVGID_508_);}
	.st381{fill:url(#SVGID_509_);}
	.st382{fill:url(#SVGID_510_);}
	.st383{fill:url(#SVGID_511_);}
	.st384{fill:url(#SVGID_512_);}
	.st385{fill:url(#SVGID_513_);}
	.st386{fill:url(#SVGID_514_);}
	.st387{fill:url(#SVGID_515_);}
	.st388{fill:url(#SVGID_516_);}
	.st389{fill:url(#SVGID_517_);}
	.st390{opacity:0.7;}
	.st391{fill:url(#SVGID_518_);}
	.st392{fill:url(#SVGID_519_);}
	.st393{fill:#C9D6E1;}
	.st394{fill:url(#SVGID_520_);}
	.st395{fill:url(#SVGID_521_);}
	.st396{fill:#31BAA6;}
	.st397{fill:url(#SVGID_522_);}
	.st398{fill:#8D99A3;}
	.st399{fill:url(#SVGID_523_);}
	.st400{fill:url(#SVGID_524_);}
	.st401{fill:url(#SVGID_525_);}
	.st402{fill:url(#SVGID_526_);}
	.st403{clip-path:url(#SVGID_528_);}
	.st404{clip-path:url(#SVGID_530_);}
	.st405{fill:url(#SVGID_531_);}
	.st406{opacity:0.7;fill:#6AC083;}
	.st407{fill:#808184;}
	.st408{fill:#ACDDDA;stroke:#99CBC6;stroke-linecap:round;stroke-linejoin:round;stroke-miterlimit:10;}
	.st409{fill:#BFE4E4;stroke:#A7D7D4;stroke-linecap:round;stroke-linejoin:round;stroke-miterlimit:10;}
	.st410{fill:#ADDAD7;stroke:#99CBC6;stroke-linecap:round;stroke-linejoin:round;stroke-miterlimit:10;}
	.st411{fill:#9ACBC6;stroke:#8BBEB8;stroke-linecap:round;stroke-linejoin:round;stroke-miterlimit:10;}
	.st412{fill:#FFFFFF;stroke:#221F1F;stroke-linecap:round;stroke-linejoin:round;stroke-miterlimit:10;}
	.st413{fill:#78C8C0;stroke:#6EBAB0;stroke-linecap:round;stroke-linejoin:round;stroke-miterlimit:10;}
	.st414{fill:#85CFCB;stroke:#6CBEB6;stroke-linecap:round;stroke-linejoin:round;stroke-miterlimit:10;}
	.st415{fill:#6AB7AE;stroke:#58A499;stroke-linecap:round;stroke-linejoin:round;stroke-miterlimit:10;}
	.st416{fill:#6AB9B1;stroke:#5EA99E;stroke-linecap:round;stroke-linejoin:round;stroke-miterlimit:10;}
	.st417{fill:#5EAEA1;stroke:#4E9D90;stroke-linecap:round;stroke-linejoin:round;stroke-miterlimit:10;}
	.st418{fill:#A9DBD5;stroke:#8ED1C6;stroke-linecap:round;stroke-linejoin:round;stroke-miterlimit:10;}
	.st419{fill:#96D4CA;stroke:#7DCBBC;stroke-linecap:round;stroke-linejoin:round;stroke-miterlimit:10;}
	.st420{fill:none;stroke:#7DCBBC;stroke-linecap:round;stroke-linejoin:round;stroke-miterlimit:10;}
	.st421{fill:#47988C;stroke:#3A867A;stroke-linecap:round;stroke-linejoin:round;stroke-miterlimit:10;}
	.st422{fill:#3B887C;stroke:#327A6C;stroke-linecap:round;stroke-linejoin:round;stroke-miterlimit:10;}
	.st423{fill:none;stroke:#23626A;stroke-linecap:round;stroke-linejoin:round;stroke-miterlimit:10;}
	.st424{fill:none;stroke:#C0D6D1;stroke-linecap:round;stroke-linejoin:round;stroke-miterlimit:10;}
	.st425{fill:#ECF3F2;stroke:#DBE6E4;stroke-linecap:round;stroke-linejoin:round;stroke-miterlimit:10;}
	.st426{fill:#D8E7E4;stroke:#C0D6D1;stroke-linecap:round;stroke-linejoin:round;stroke-miterlimit:10;}
	.st427{fill:#C2E7F1;stroke:#ACDDE4;stroke-linecap:round;stroke-linejoin:round;stroke-miterlimit:10;}
	.st428{fill:#8DC0BA;stroke:#7DB1A9;stroke-linecap:round;stroke-linejoin:round;stroke-miterlimit:10;}
	.st429{fill:#D3ECEC;stroke:#D3ECEC;stroke-linecap:round;stroke-linejoin:round;stroke-miterlimit:10;}
	.st430{fill:#E1F2F4;stroke:#D3ECEC;stroke-linecap:round;stroke-linejoin:round;stroke-miterlimit:10;}
	.st431{fill:#80CCBD;stroke:#6FC0B0;stroke-linecap:round;stroke-linejoin:round;stroke-miterlimit:10;}
	.st432{fill:#A8D3DF;stroke:#91C2CD;stroke-linecap:round;stroke-linejoin:round;stroke-miterlimit:10;}
	.st433{fill:#BFE1DD;stroke:#95C3BB;stroke-linecap:round;stroke-linejoin:round;stroke-miterlimit:10;}
	.st434{fill:#98D5CC;stroke:#8ED1C6;stroke-linecap:round;stroke-linejoin:round;stroke-miterlimit:10;}
	.st435{fill:#77AEA7;stroke:#679F97;stroke-linecap:round;stroke-linejoin:round;stroke-miterlimit:10;}
	.st436{fill:#85BEB9;stroke:#77AEA7;stroke-linecap:round;stroke-linejoin:round;stroke-miterlimit:10;}
	.st437{fill:#9AC5C0;stroke:#89B6B0;stroke-linecap:round;stroke-linejoin:round;stroke-miterlimit:10;}
	.st438{fill:#C8E7E3;stroke:#93D3C7;stroke-linecap:round;stroke-linejoin:round;stroke-miterlimit:10;}
	.st439{fill:#93C4BD;stroke:#80B1AA;stroke-linecap:round;stroke-linejoin:round;stroke-miterlimit:10;}
	.st440{fill:#6AB7AF;stroke:#579F96;stroke-linecap:round;stroke-linejoin:round;stroke-miterlimit:10;}
	.st441{fill:#6CBBB2;stroke:#5EACA0;stroke-linecap:round;stroke-linejoin:round;stroke-miterlimit:10;}
	.st442{fill:#FFFFFF;stroke:#ECF3F2;stroke-linecap:round;stroke-linejoin:round;stroke-miterlimit:10;}
	.st443{fill:#FFFFFF;stroke:#6D6E71;stroke-linecap:round;stroke-linejoin:round;stroke-miterlimit:10;}
	.st444{fill:none;stroke:#C4E2E9;stroke-width:5;stroke-linecap:round;stroke-linejoin:round;stroke-miterlimit:10;}
	.st445{fill:none;stroke:#E8F6FB;stroke-width:3;stroke-linecap:round;stroke-linejoin:round;stroke-miterlimit:10;}
	.st446{opacity:0.5;fill:#33C3EA;}
	.st447{fill:url(#SVGID_532_);}
	.st448{fill:url(#SVGID_533_);}
	.st449{opacity:0.53;fill:#33C3EA;}
	.st450{opacity:0.9;fill:#33C3EA;}
	.st451{clip-path:url(#SVGID_535_);}
	.st452{clip-path:url(#SVGID_537_);}
	.st453{fill:#FFFFFF;stroke:#33C3EA;stroke-miterlimit:10;}
	.st454{fill:#F3F3F3;stroke:#AFBFCE;stroke-miterlimit:10;}
	.st455{clip-path:url(#SVGID_539_);}
	.st456{clip-path:url(#SVGID_541_);}
	.st457{clip-path:url(#SVGID_543_);}
	.st458{fill:none;stroke:#43AF49;stroke-miterlimit:10;}
	.st459{fill:url(#SVGID_544_);}
	.st460{fill:url(#SVGID_545_);}
	.st461{opacity:0.5;fill:url(#SVGID_546_);}
	.st462{opacity:0.7;fill:url(#SVGID_547_);}
	.st463{fill:url(#SVGID_548_);}
	.st464{fill:#65C08A;}
	.st465{opacity:0.5;fill:url(#SVGID_549_);}
	.st466{opacity:0.7;fill:url(#SVGID_550_);}
	.st467{opacity:0.6;fill:url(#SVGID_551_);}
	.st468{fill:url(#SVGID_552_);}
	.st469{fill:url(#SVGID_553_);}
	.st470{fill:url(#SVGID_554_);}
	.st471{fill:url(#SVGID_555_);}
	.st472{opacity:0.7;fill:url(#SVGID_556_);}
	.st473{fill:url(#SVGID_557_);}
	.st474{fill:url(#SVGID_558_);}
	.st475{fill:url(#SVGID_559_);}
	.st476{opacity:0.7;fill:url(#SVGID_560_);}
	.st477{fill:url(#SVGID_561_);}
	.st478{fill:url(#SVGID_562_);}
	.st479{opacity:0.5;fill:url(#SVGID_563_);}
	.st480{opacity:0.7;fill:url(#SVGID_564_);}
	.st481{fill:url(#SVGID_565_);}
	.st482{fill:url(#SVGID_566_);}
	.st483{fill:url(#SVGID_567_);}
	.st484{fill:url(#SVGID_568_);}
	.st485{opacity:0.7;fill:url(#SVGID_569_);}
	.st486{fill:url(#SVGID_570_);}
	.st487{fill:url(#SVGID_571_);}
	.st488{opacity:0.5;fill:url(#SVGID_572_);}
	.st489{opacity:0.7;fill:url(#SVGID_573_);}
	.st490{fill:url(#SVGID_574_);}
	.st491{fill:url(#SVGID_575_);}
	.st492{fill:url(#SVGID_576_);}
	.st493{fill:url(#SVGID_577_);}
	.st494{opacity:0.5;fill:url(#SVGID_578_);}
	.st495{opacity:0.7;fill:url(#SVGID_579_);}
	.st496{opacity:0.8;fill:url(#SVGID_580_);}
	.st497{opacity:0.8;}
	.st498{fill:url(#SVGID_581_);}
	.st499{clip-path:url(#SVGID_583_);}
	.st500{fill:url(#SVGID_584_);}
	.st501{fill:url(#SVGID_585_);}
	.st502{fill:url(#SVGID_586_);}
	.st503{fill:url(#SVGID_587_);}
	.st504{clip-path:url(#SVGID_589_);}
	.st505{fill:url(#SVGID_590_);}
	.st506{fill:url(#SVGID_591_);}
	.st507{fill:url(#SVGID_592_);}
	.st508{fill:url(#SVGID_593_);}
	.st509{fill:url(#SVGID_594_);}
	.st510{fill:url(#SVGID_595_);}
	.st511{opacity:0.5;fill:url(#SVGID_596_);}
	.st512{opacity:0.7;fill:url(#SVGID_597_);}
	.st513{fill:url(#SVGID_598_);}
</style>
<g id="Layer_2">
</g>
<g id="Layer_1">
	<g>
		<g>
			<path class="st464" d="M75.8,69c-1-1-2.2-1.5-3.6-1.5c-1.4,0-2.6,0.5-3.6,1.5c-1,1-1.5,2.2-1.5,3.6c0,1.4,0.5,2.7,1.5,3.6
				c1,1,2.2,1.5,3.6,1.5c1.4,0,2.6-0.5,3.6-1.5c1-1,1.5-2.2,1.5-3.6C77.2,71.2,76.7,70,75.8,69z M75.7,72.6c0,1-0.3,1.9-1.1,2.6
				c-0.7,0.7-1.5,1-2.5,1s-1.8-0.3-2.5-1c-0.7-0.7-1.1-1.5-1.1-2.6c0-1,0.4-1.9,1-2.6c0.7-0.7,1.6-1,2.6-1c1,0,1.8,0.3,2.6,1
				C75.4,70.7,75.7,71.6,75.7,72.6z"/>
			<path class="st464" d="M73.9,70.3c-0.5-0.4-1.1-0.6-1.8-0.6c-0.8,0-1.6,0.3-2.1,0.9c-0.6,0.6-0.9,1.3-0.9,2.1
				c0,0.8,0.3,1.5,0.9,2.1c0.6,0.6,1.3,0.9,2.1,0.9c0.7,0,1.3-0.2,1.8-0.6c0.5-0.4,0.8-0.9,0.9-1.5l0.1-0.2h-1.5l0,0.2
				c-0.1,0.2-0.2,0.4-0.4,0.5c-0.2,0.1-0.5,0.2-0.8,0.2c-0.4,0-0.8-0.2-1-0.5c-0.3-0.3-0.4-0.7-0.4-1.1c0-0.4,0.1-0.8,0.4-1.1
				c0.3-0.3,0.6-0.5,1-0.5c0.3,0,0.6,0.1,0.8,0.2c0.2,0.1,0.4,0.3,0.4,0.5l0,0.2h1.5l-0.1-0.2C74.7,71.2,74.4,70.7,73.9,70.3z"/>
		</g>
		<polygon class="st464" points="35.2,18.3 35.3,18.3 45.4,24.2 66.9,11.7 66.9,0 		"/>
		<linearGradient id="SVGID_2_" gradientUnits="userSpaceOnUse" x1="71.9253" y1="-2.544778e-02" x2="71.9253" y2="34.227">
			<stop  offset="0" style="stop-color:#6AC083"/>
			<stop  offset="1" style="stop-color:#2AFFA3"/>
		</linearGradient>
		<polygon style="fill:url(#SVGID_2_);" points="66.9,34.2 71.9,34.2 77,34.2 77,5.6 66.9,0 66.8,11.5 		"/>
		<g>
			<linearGradient id="SVGID_4_" gradientUnits="userSpaceOnUse" x1="0" y1="53.236" x2="70.44" y2="53.236">
				<stop  offset="0" style="stop-color:#6AC083"/>
				<stop  offset="1" style="stop-color:#2AFFA3"/>
			</linearGradient>
			<polygon style="fill:url(#SVGID_4_);" points="60.3,48 10.2,77.1 10.2,17.2 0.8,11.7 0,12.2 0,94.7 70.4,53.9 			"/>
		</g>
		<linearGradient id="SVGID_6_" gradientUnits="userSpaceOnUse" x1="0.7833" y1="28.2017" x2="67.6928" y2="28.2017">
			<stop  offset="0" style="stop-color:#6AC083"/>
			<stop  offset="1" style="stop-color:#2AFFA3"/>
		</linearGradient>
		<polyline style="fill:url(#SVGID_6_);" points="0.8,11.7 67.7,50.5 67.3,38.6 10.9,5.9 0.8,11.7 		"/>
		<polyline class="st26" points="66.9,50.1 71.9,53 77,50 77,33.2 66.9,33.2 66.9,50.1 		"/>
		<linearGradient id="SVGID_8_" gradientUnits="userSpaceOnUse" x1="34.7646" y1="15.8655" x2="68.61" y2="9.8976">
			<stop  offset="0.5128" style="stop-color:#47525A;stop-opacity:0"/>
			<stop  offset="1" style="stop-color:#47525A"/>
		</linearGradient>
		<polygon style="opacity:0.5;fill:url(#SVGID_8_);" points="66.9,0 35.2,18.3 35.3,18.3 45.4,24.2 45.4,24.2 66.8,11.8 66.9,0 		
			"/>
		<g class="st390">
			<linearGradient id="SVGID_9_" gradientUnits="userSpaceOnUse" x1="11.2636" y1="98.841" x2="38.0344" y2="25.2889">
				<stop  offset="0.5128" style="stop-color:#47525A;stop-opacity:0"/>
				<stop  offset="1" style="stop-color:#47525A"/>
			</linearGradient>
			<polygon style="opacity:0.7;fill:url(#SVGID_9_);" points="60.3,48 10.2,77.1 10.2,17.2 0.8,11.7 0,12.2 0,94.7 70.4,53.9 			"/>
		</g>
		<linearGradient id="SVGID_10_" gradientUnits="userSpaceOnUse" x1="64.9897" y1="-1.595" x2="42.8638" y2="24.7737">
			<stop  offset="0.5128" style="stop-color:#47525A;stop-opacity:0"/>
			<stop  offset="1" style="stop-color:#47525A"/>
		</linearGradient>
		<polygon style="opacity:0.8;fill:url(#SVGID_10_);" points="65.9,0.5 35.2,18.3 35.3,18.3 45.4,24.2 45.4,24.2 66.8,11.8 66.9,0 
					"/>
		<g class="st497">
			<linearGradient id="SVGID_11_" gradientUnits="userSpaceOnUse" x1="35.22" y1="94.7414" x2="35.22" y2="11.7305">
				<stop  offset="0.5128" style="stop-color:#47525A;stop-opacity:0"/>
				<stop  offset="1" style="stop-color:#47525A"/>
			</linearGradient>
			<polygon style="fill:url(#SVGID_11_);" points="60.3,48 10.2,77.1 10.2,17.2 0.8,11.7 0,12.2 0,94.7 70.4,53.9 			"/>
		</g>
	</g>
	<g>
		<g>
			<path class="st25" d="M7.1,115.7l0.6,2.1h0.1l5.3-14.8h2.2l-7.6,20.3c-0.5,1.2-1,2.2-1.8,3c-0.7,0.8-1.8,1.2-3.2,1.2
				c-0.2,0-0.5,0-0.8-0.1c-0.3,0-0.6-0.1-0.7-0.2l0.2-1.6c0.1,0,0.3,0,0.6,0.1c0.3,0,0.5,0,0.6,0c0.8,0,1.5-0.3,2-0.9
				c0.5-0.6,0.9-1.4,1.3-2.3l0.9-2.4l-6.8-17.3h2.2L7.1,115.7z"/>
			<path class="st25" d="M54,116c0-0.8-0.3-1.5-1-2.1c-0.7-0.6-1.9-1.1-3.6-1.5c-2.1-0.5-3.6-1.1-4.6-1.8c-1-0.7-1.5-1.8-1.5-3.2
				c0-1.3,0.6-2.5,1.7-3.4c1.1-0.9,2.6-1.4,4.5-1.4c2,0,3.5,0.5,4.7,1.5c1.2,1,1.7,2.2,1.6,3.7l0,0.1h-1.8c0-1-0.4-1.8-1.2-2.5
				c-0.8-0.7-1.9-1.1-3.3-1.1c-1.4,0-2.5,0.3-3.2,0.9c-0.7,0.6-1.1,1.3-1.1,2.1c0,0.8,0.3,1.5,0.9,2c0.6,0.5,1.8,1,3.6,1.4
				c2.1,0.5,3.6,1.1,4.7,1.9c1,0.8,1.6,1.9,1.6,3.3c0,1.5-0.6,2.6-1.8,3.5c-1.2,0.9-2.7,1.4-4.7,1.4c-2.1,0-3.8-0.5-5-1.5
				c-1.2-1-1.8-2.2-1.7-3.6l0-0.1h1.8c0.1,1.3,0.6,2.2,1.5,2.7c1,0.6,2.1,0.9,3.4,0.9c1.4,0,2.5-0.3,3.3-0.9
				C53.6,117.6,54,116.8,54,116z"/>
			<path class="st25" d="M76.9,112c0-2.7-0.6-4.9-1.8-6.6c-1.2-1.6-2.8-2.5-4.8-2.5h-0.9c-2,0-3.5,0.7-4.7,2.2v-2.2h-1.9v8.7v0.3
				v15.6h1.9v-8.8c1.2,1.5,2.7,2.3,4.7,2.3h0.9c2,0,3.7-0.8,4.8-2.3c1.2-1.6,1.8-3.6,1.8-6.3V112C76.9,112.1,76.9,112.1,76.9,112
				L76.9,112z M73.6,117.5c-0.8,1.1-1.9,1.7-3.4,1.9c0,0-0.3,0-0.5,0c-0.2,0-0.4,0-0.4,0c-1.4-0.1-2.6-0.8-3.3-2
				c-0.9-1.4-1.3-3.1-1.3-5.2l0-0.5c0-2.1,0.4-3.8,1.3-5.1c0.8-1.1,1.9-1.7,3.4-1.9c0,0,0.3,0,0.5,0c0.2,0,0.4,0,0.4,0
				c1.4,0.1,2.6,0.8,3.3,2c0.9,1.4,1.3,3.1,1.3,5.2h0c0,0,0,0.5,0,0.5C74.9,114.5,74.5,116.2,73.6,117.5z"/>
		</g>
		<path class="st25" d="M33.8,102.9v10.7v0.4v0c0,2.6-2.1,4.8-4.8,4.8c-2.6,0-4.8-2.1-4.8-4.8v0v-0.5v-10.6h-1.9V114c0,0,0,0,0,0.1
			h0c0,0,0,0,0,0c0,3.7,3,6.7,6.7,6.7c3.7,0,6.7-3,6.7-6.6h0v-11.2H33.8z"/>
	</g>
</g>
<g id="Layer_3">
</g>
</svg>
